<mxfile host="app.diagrams.net" modified="2023-08-10T20:37:46.618Z" agent="Mozilla/5.0 (Windows NT 10.0; Win64; x64) AppleWebKit/537.36 (KHTML, like Gecko) Chrome/115.0.0.0 Safari/537.36" etag="90X5bNnlus4eWfhSMFWh" version="21.6.8" type="device">
  <diagram name="Page-1" id="2fgJgThWwuTPRL6iHZKe">
    <mxGraphModel dx="794" dy="470" grid="1" gridSize="10" guides="1" tooltips="1" connect="1" arrows="1" fold="1" page="1" pageScale="1" pageWidth="850" pageHeight="1100" math="0" shadow="0">
      <root>
        <mxCell id="0" />
        <mxCell id="1" parent="0" />
        <mxCell id="kVhKLMu1PQJ_qYqCAsa3-1" value="Photograph is taken&lt;br&gt;" style="sketch=0;outlineConnect=0;fontColor=#232F3E;gradientColor=none;fillColor=#232F3D;strokeColor=none;dashed=0;verticalLabelPosition=bottom;verticalAlign=top;align=center;html=1;fontSize=12;fontStyle=0;aspect=fixed;pointerEvents=1;shape=mxgraph.aws4.camera2;" vertex="1" parent="1">
          <mxGeometry x="70" y="150" width="78" height="62" as="geometry" />
        </mxCell>
        <mxCell id="kVhKLMu1PQJ_qYqCAsa3-11" value="" style="edgeStyle=orthogonalEdgeStyle;rounded=0;orthogonalLoop=1;jettySize=auto;html=1;" edge="1" parent="1" source="kVhKLMu1PQJ_qYqCAsa3-13" target="kVhKLMu1PQJ_qYqCAsa3-3">
          <mxGeometry relative="1" as="geometry">
            <Array as="points">
              <mxPoint x="400" y="192" />
              <mxPoint x="400" y="192" />
            </Array>
          </mxGeometry>
        </mxCell>
        <mxCell id="kVhKLMu1PQJ_qYqCAsa3-2" value="Amazon S3&amp;nbsp;&lt;br&gt;&lt;span style=&quot;font-weight: normal;&quot;&gt;Photo is uploaded to &lt;br&gt;an S3 Bucket&lt;/span&gt;" style="sketch=0;outlineConnect=0;fontColor=#232F3E;gradientColor=none;fillColor=#3F8624;strokeColor=none;dashed=0;verticalLabelPosition=bottom;verticalAlign=top;align=center;html=1;fontSize=12;fontStyle=1;aspect=fixed;pointerEvents=1;shape=mxgraph.aws4.bucket;" vertex="1" parent="1">
          <mxGeometry x="220" y="142" width="75" height="78" as="geometry" />
        </mxCell>
        <mxCell id="kVhKLMu1PQJ_qYqCAsa3-16" style="edgeStyle=orthogonalEdgeStyle;rounded=0;orthogonalLoop=1;jettySize=auto;html=1;" edge="1" parent="1" source="kVhKLMu1PQJ_qYqCAsa3-3" target="kVhKLMu1PQJ_qYqCAsa3-5">
          <mxGeometry relative="1" as="geometry" />
        </mxCell>
        <mxCell id="kVhKLMu1PQJ_qYqCAsa3-3" value="&lt;b&gt;AWS&amp;nbsp;&lt;/b&gt;&amp;nbsp;&lt;b&gt;Lamda&amp;nbsp;&lt;/b&gt;&lt;br&gt;Lambda runs image &lt;br&gt;resizing code" style="sketch=0;points=[[0,0,0],[0.25,0,0],[0.5,0,0],[0.75,0,0],[1,0,0],[0,1,0],[0.25,1,0],[0.5,1,0],[0.75,1,0],[1,1,0],[0,0.25,0],[0,0.5,0],[0,0.75,0],[1,0.25,0],[1,0.5,0],[1,0.75,0]];outlineConnect=0;fontColor=#232F3E;gradientColor=#F78E04;gradientDirection=north;fillColor=#D05C17;strokeColor=#ffffff;dashed=0;verticalLabelPosition=bottom;verticalAlign=top;align=center;html=1;fontSize=12;fontStyle=0;aspect=fixed;shape=mxgraph.aws4.resourceIcon;resIcon=mxgraph.aws4.lambda;" vertex="1" parent="1">
          <mxGeometry x="410" y="142" width="78" height="78" as="geometry" />
        </mxCell>
        <mxCell id="kVhKLMu1PQJ_qYqCAsa3-5" value="Photo is resized into web&lt;br&gt;mobile, and tablet sizes" style="shape=image;html=1;verticalAlign=top;verticalLabelPosition=bottom;labelBackgroundColor=#ffffff;imageAspect=0;aspect=fixed;image=https://cdn2.iconfinder.com/data/icons/whcompare-isometric-web-hosting-servers/50/email-laptop-128.png" vertex="1" parent="1">
          <mxGeometry x="550" y="117" width="128" height="128" as="geometry" />
        </mxCell>
        <mxCell id="kVhKLMu1PQJ_qYqCAsa3-6" value="" style="html=1;verticalLabelPosition=bottom;align=center;labelBackgroundColor=#ffffff;verticalAlign=top;strokeWidth=2;strokeColor=#0080F0;shadow=0;dashed=0;shape=mxgraph.ios7.icons.smartphone;" vertex="1" parent="1">
          <mxGeometry x="560" y="197" width="30" height="48" as="geometry" />
        </mxCell>
        <mxCell id="kVhKLMu1PQJ_qYqCAsa3-7" value="" style="shape=image;html=1;verticalAlign=top;verticalLabelPosition=bottom;labelBackgroundColor=#ffffff;imageAspect=0;aspect=fixed;image=https://cdn4.iconfinder.com/data/icons/evil-icons-user-interface/64/picture-128.png" vertex="1" parent="1">
          <mxGeometry x="561" y="206.5" width="29" height="29" as="geometry" />
        </mxCell>
        <mxCell id="kVhKLMu1PQJ_qYqCAsa3-8" value="" style="edgeStyle=none;orthogonalLoop=1;jettySize=auto;html=1;rounded=0;" edge="1" parent="1">
          <mxGeometry width="80" relative="1" as="geometry">
            <mxPoint x="148" y="191" as="sourcePoint" />
            <mxPoint x="228" y="191" as="targetPoint" />
            <Array as="points" />
          </mxGeometry>
        </mxCell>
        <mxCell id="kVhKLMu1PQJ_qYqCAsa3-14" value="" style="edgeStyle=orthogonalEdgeStyle;rounded=0;orthogonalLoop=1;jettySize=auto;html=1;" edge="1" parent="1" source="kVhKLMu1PQJ_qYqCAsa3-2" target="kVhKLMu1PQJ_qYqCAsa3-13">
          <mxGeometry relative="1" as="geometry">
            <mxPoint x="295" y="190" as="sourcePoint" />
            <mxPoint x="400" y="190" as="targetPoint" />
            <Array as="points">
              <mxPoint x="310" y="192" />
              <mxPoint x="310" y="192" />
            </Array>
          </mxGeometry>
        </mxCell>
        <mxCell id="kVhKLMu1PQJ_qYqCAsa3-13" value="Lambda&amp;nbsp;&lt;br&gt;is&amp;nbsp;&lt;br&gt;Triggered&lt;br&gt;" style="shape=image;html=1;verticalAlign=top;verticalLabelPosition=bottom;labelBackgroundColor=#ffffff;imageAspect=0;aspect=fixed;image=https://cdn0.iconfinder.com/data/icons/phosphor-regular-vol-5/256/warning-circle-128.png" vertex="1" parent="1">
          <mxGeometry x="330" y="172" width="40" height="40" as="geometry" />
        </mxCell>
        <mxCell id="kVhKLMu1PQJ_qYqCAsa3-18" value="AWS Lambda File Processing&lt;br&gt;" style="text;html=1;align=center;verticalAlign=middle;resizable=0;points=[];autosize=1;strokeColor=none;fillColor=none;" vertex="1" parent="1">
          <mxGeometry x="250" y="300" width="180" height="30" as="geometry" />
        </mxCell>
        <mxCell id="kVhKLMu1PQJ_qYqCAsa3-27" value="" style="edgeStyle=orthogonalEdgeStyle;rounded=0;orthogonalLoop=1;jettySize=auto;html=1;" edge="1" parent="1" source="kVhKLMu1PQJ_qYqCAsa3-19" target="kVhKLMu1PQJ_qYqCAsa3-20">
          <mxGeometry relative="1" as="geometry" />
        </mxCell>
        <mxCell id="kVhKLMu1PQJ_qYqCAsa3-19" value="Amazon Kinesis&amp;nbsp;&lt;br&gt;&lt;span style=&quot;font-weight: normal;&quot;&gt;Social media stream is &lt;br&gt;loaded into Kinesis&amp;nbsp;&lt;br&gt;in real-time&lt;/span&gt;" style="sketch=0;points=[[0,0,0],[0.25,0,0],[0.5,0,0],[0.75,0,0],[1,0,0],[0,1,0],[0.25,1,0],[0.5,1,0],[0.75,1,0],[1,1,0],[0,0.25,0],[0,0.5,0],[0,0.75,0],[1,0.25,0],[1,0.5,0],[1,0.75,0]];outlineConnect=0;fontColor=#232F3E;gradientColor=#945DF2;gradientDirection=north;fillColor=#5A30B5;strokeColor=#ffffff;dashed=0;verticalLabelPosition=bottom;verticalAlign=top;align=center;html=1;fontSize=12;fontStyle=1;aspect=fixed;shape=mxgraph.aws4.resourceIcon;resIcon=mxgraph.aws4.kinesis;" vertex="1" parent="1">
          <mxGeometry x="100" y="477" width="78" height="78" as="geometry" />
        </mxCell>
        <mxCell id="kVhKLMu1PQJ_qYqCAsa3-20" value="Lambda&amp;nbsp;&lt;br&gt;is&amp;nbsp;&lt;br&gt;Triggered&lt;br&gt;" style="shape=image;html=1;verticalAlign=top;verticalLabelPosition=bottom;labelBackgroundColor=#ffffff;imageAspect=0;aspect=fixed;image=https://cdn0.iconfinder.com/data/icons/phosphor-regular-vol-5/256/warning-circle-128.png" vertex="1" parent="1">
          <mxGeometry x="230" y="504" width="50" height="50" as="geometry" />
        </mxCell>
        <mxCell id="kVhKLMu1PQJ_qYqCAsa3-21" value="&lt;b&gt;AWS Lambda&amp;nbsp;&lt;/b&gt;&lt;br&gt;&amp;nbsp;Lambda runs code that&amp;nbsp;&lt;br&gt;generates hashtag&amp;nbsp;&lt;br&gt;trend data&amp;nbsp;&lt;br&gt;" style="sketch=0;points=[[0,0,0],[0.25,0,0],[0.5,0,0],[0.75,0,0],[1,0,0],[0,1,0],[0.25,1,0],[0.5,1,0],[0.75,1,0],[1,1,0],[0,0.25,0],[0,0.5,0],[0,0.75,0],[1,0.25,0],[1,0.5,0],[1,0.75,0]];outlineConnect=0;fontColor=#232F3E;gradientColor=#F78E04;gradientDirection=north;fillColor=#D05C17;strokeColor=#ffffff;dashed=0;verticalLabelPosition=bottom;verticalAlign=top;align=center;html=1;fontSize=12;fontStyle=0;aspect=fixed;shape=mxgraph.aws4.resourceIcon;resIcon=mxgraph.aws4.lambda;" vertex="1" parent="1">
          <mxGeometry x="347" y="476" width="78" height="78" as="geometry" />
        </mxCell>
        <mxCell id="kVhKLMu1PQJ_qYqCAsa3-22" value="&lt;b&gt;Amazon DynamoDB&lt;/b&gt;&lt;br&gt;The hashtag trend data is&lt;br&gt;stored in DynamoDB" style="sketch=0;points=[[0,0,0],[0.25,0,0],[0.5,0,0],[0.75,0,0],[1,0,0],[0,1,0],[0.25,1,0],[0.5,1,0],[0.75,1,0],[1,1,0],[0,0.25,0],[0,0.5,0],[0,0.75,0],[1,0.25,0],[1,0.5,0],[1,0.75,0]];outlineConnect=0;fontColor=#232F3E;gradientColor=#4D72F3;gradientDirection=north;fillColor=#3334B9;strokeColor=#ffffff;dashed=0;verticalLabelPosition=bottom;verticalAlign=top;align=center;html=1;fontSize=12;fontStyle=0;aspect=fixed;shape=mxgraph.aws4.resourceIcon;resIcon=mxgraph.aws4.dynamodb;" vertex="1" parent="1">
          <mxGeometry x="488" y="476" width="78" height="78" as="geometry" />
        </mxCell>
        <mxCell id="kVhKLMu1PQJ_qYqCAsa3-23" value="Social Media trend data &lt;br&gt;immediately&lt;br&gt;&amp;nbsp;available for business &lt;br&gt;users to query&amp;nbsp;" style="shape=image;html=1;verticalAlign=top;verticalLabelPosition=bottom;labelBackgroundColor=#ffffff;imageAspect=0;aspect=fixed;image=https://cdn0.iconfinder.com/data/icons/devices-42/512/Macbook-128.png" vertex="1" parent="1">
          <mxGeometry x="631" y="451" width="104" height="104" as="geometry" />
        </mxCell>
        <mxCell id="kVhKLMu1PQJ_qYqCAsa3-24" value="" style="dashed=0;outlineConnect=0;html=1;align=center;labelPosition=center;verticalLabelPosition=bottom;verticalAlign=top;shape=mxgraph.weblogos.twitter;fillColor=#1DA1F2;strokeColor=none" vertex="1" parent="1">
          <mxGeometry x="668" y="484" width="30" height="20" as="geometry" />
        </mxCell>
        <mxCell id="kVhKLMu1PQJ_qYqCAsa3-25" value="" style="dashed=0;outlineConnect=0;html=1;align=center;labelPosition=center;verticalLabelPosition=bottom;verticalAlign=top;shape=mxgraph.webicons.facebook;fillColor=#6294E4;gradientColor=#1A2665" vertex="1" parent="1">
          <mxGeometry x="698" y="464" width="22" height="36" as="geometry" />
        </mxCell>
        <mxCell id="kVhKLMu1PQJ_qYqCAsa3-26" value="" style="edgeStyle=none;orthogonalLoop=1;jettySize=auto;html=1;rounded=0;entryX=-0.009;entryY=0.598;entryDx=0;entryDy=0;entryPerimeter=0;" edge="1" parent="1" target="kVhKLMu1PQJ_qYqCAsa3-22">
          <mxGeometry width="80" relative="1" as="geometry">
            <mxPoint x="425" y="520" as="sourcePoint" />
            <mxPoint x="488" y="517" as="targetPoint" />
            <Array as="points" />
          </mxGeometry>
        </mxCell>
        <mxCell id="kVhKLMu1PQJ_qYqCAsa3-28" value="" style="edgeStyle=none;orthogonalLoop=1;jettySize=auto;html=1;rounded=0;" edge="1" parent="1" source="kVhKLMu1PQJ_qYqCAsa3-20">
          <mxGeometry width="80" relative="1" as="geometry">
            <mxPoint x="300" y="530" as="sourcePoint" />
            <mxPoint x="350" y="530" as="targetPoint" />
            <Array as="points" />
          </mxGeometry>
        </mxCell>
        <mxCell id="kVhKLMu1PQJ_qYqCAsa3-30" value="" style="edgeStyle=none;orthogonalLoop=1;jettySize=auto;html=1;rounded=0;" edge="1" parent="1">
          <mxGeometry width="80" relative="1" as="geometry">
            <mxPoint x="570" y="520" as="sourcePoint" />
            <mxPoint x="650" y="520" as="targetPoint" />
            <Array as="points">
              <mxPoint x="610" y="520" />
            </Array>
          </mxGeometry>
        </mxCell>
        <mxCell id="kVhKLMu1PQJ_qYqCAsa3-31" value="&lt;span style=&quot;color: rgb(0, 0, 0); font-family: Helvetica; font-size: 12px; font-style: normal; font-variant-ligatures: normal; font-variant-caps: normal; font-weight: 400; letter-spacing: normal; orphans: 2; text-align: center; text-indent: 0px; text-transform: none; widows: 2; word-spacing: 0px; -webkit-text-stroke-width: 0px; background-color: rgb(251, 251, 251); text-decoration-thickness: initial; text-decoration-style: initial; text-decoration-color: initial; float: none; display: inline !important;&quot;&gt;AWS Lambda Stream Processing&lt;/span&gt;" style="text;whiteSpace=wrap;html=1;" vertex="1" parent="1">
          <mxGeometry x="300" y="650" width="190" height="40" as="geometry" />
        </mxCell>
        <mxCell id="kVhKLMu1PQJ_qYqCAsa3-32" value="" style="whiteSpace=wrap;html=1;" vertex="1" parent="1">
          <mxGeometry x="70" y="730" width="120" height="140" as="geometry" />
        </mxCell>
      </root>
    </mxGraphModel>
  </diagram>
</mxfile>
